<svg width="16" height="16" viewBox="0 0 16 16" fill="none" xmlns="http://www.w3.org/2000/svg">
<path d="M5.56011 2.95832C5.27076 2.66896 4.80085 2.66896 4.5115 2.95832L2.28928 5.18054C1.99993 5.46989 1.99993 5.9398 2.28928 6.22915C2.57863 6.5185 3.04854 6.5185 3.33789 6.22915L4.29622 5.27082V12.3704C4.29622 12.7801 4.62724 13.1111 5.03696 13.1111C5.44669 13.1111 5.77771 12.7801 5.77771 12.3704V5.27082L6.73604 6.22915C7.02539 6.5185 7.4953 6.5185 7.78465 6.22915C8.074 5.9398 8.074 5.46989 7.78465 5.18054L5.56243 2.95832H5.56011ZM13.7083 10.6736C13.9976 10.3842 13.9976 9.91433 13.7083 9.62498C13.4189 9.33563 12.949 9.33563 12.6597 9.62498L11.7036 10.581V3.48146C11.7036 3.07174 11.3726 2.74072 10.9629 2.74072C10.5532 2.74072 10.2222 3.07174 10.2222 3.48146V10.581L9.26382 9.62267C8.97447 9.33332 8.50456 9.33332 8.21521 9.62267C7.92585 9.91202 7.92585 10.3819 8.21521 10.6713L10.4374 12.8935C10.7268 13.1829 11.1967 13.1829 11.486 12.8935L13.7083 10.6713V10.6736Z" fill="#6B7280"/>
</svg>
