<svg width="16" height="16" viewBox="0 0 16 16" fill="none" xmlns="http://www.w3.org/2000/svg">
<path d="M2 3.83333C2 3.3724 2.3724 3 2.83333 3H12.8333C13.2943 3 13.6667 3.3724 13.6667 3.83333C13.6667 4.29427 13.2943 4.66667 12.8333 4.66667H2.83333C2.3724 4.66667 2 4.29427 2 3.83333ZM2 8C2 7.53906 2.3724 7.16667 2.83333 7.16667H12.8333C13.2943 7.16667 13.6667 7.53906 13.6667 8C13.6667 8.46094 13.2943 8.83333 12.8333 8.83333H2.83333C2.3724 8.83333 2 8.46094 2 8ZM13.6667 12.1667C13.6667 12.6276 13.2943 13 12.8333 13H2.83333C2.3724 13 2 12.6276 2 12.1667C2 11.7057 2.3724 11.3333 2.83333 11.3333H12.8333C13.2943 11.3333 13.6667 11.7057 13.6667 12.1667Z" fill="#D1D5DB"/>
</svg>
