<svg width="16" height="16" viewBox="0 0 16 16" fill="none" xmlns="http://www.w3.org/2000/svg">
<path d="M12.1668 6.75004C12.1668 7.94535 11.7788 9.04952 11.1252 9.94535L14.422 13.2448C14.7476 13.5704 14.7476 14.099 14.422 14.4245C14.0965 14.75 13.5679 14.75 13.2424 14.4245L9.94548 11.125C9.04964 11.7813 7.94548 12.1667 6.75016 12.1667C3.75798 12.1667 1.3335 9.74223 1.3335 6.75004C1.3335 3.75785 3.75798 1.33337 6.75016 1.33337C9.74235 1.33337 12.1668 3.75785 12.1668 6.75004ZM6.75016 10.5C8.82048 10.5 10.5002 8.82035 10.5002 6.75004C10.5002 4.67973 8.82048 3.00004 6.75016 3.00004C4.67985 3.00004 3.00016 4.67973 3.00016 6.75004C3.00016 8.82035 4.67985 10.5 6.75016 10.5Z" fill="#6B7280"/>
</svg>
