<svg width="34" height="34" viewBox="0 0 34 34" fill="none" xmlns="http://www.w3.org/2000/svg">
<g filter="url(#filter0_d_56_7194)">
<rect x="1" width="32" height="32" rx="6" fill="#374151" shape-rendering="crispEdges"/>
<path d="M11 11.8333C11 11.3724 11.3724 11 11.8333 11H21.8333C22.2943 11 22.6667 11.3724 22.6667 11.8333C22.6667 12.2943 22.2943 12.6667 21.8333 12.6667H11.8333C11.3724 12.6667 11 12.2943 11 11.8333ZM11 16C11 15.5391 11.3724 15.1667 11.8333 15.1667H21.8333C22.2943 15.1667 22.6667 15.5391 22.6667 16C22.6667 16.4609 22.2943 16.8333 21.8333 16.8333H11.8333C11.3724 16.8333 11 16.4609 11 16ZM22.6667 20.1667C22.6667 20.6276 22.2943 21 21.8333 21H11.8333C11.3724 21 11 20.6276 11 20.1667C11 19.7057 11.3724 19.3333 11.8333 19.3333H21.8333C22.2943 19.3333 22.6667 19.7057 22.6667 20.1667Z" fill="#D1D5DB"/>
</g>
<defs>
<filter id="filter0_d_56_7194" x="0" y="0" width="34" height="34" filterUnits="userSpaceOnUse" color-interpolation-filters="sRGB">
<feFlood flood-opacity="0" result="BackgroundImageFix"/>
<feColorMatrix in="SourceAlpha" type="matrix" values="0 0 0 0 0 0 0 0 0 0 0 0 0 0 0 0 0 0 127 0" result="hardAlpha"/>
<feOffset dy="1"/>
<feGaussianBlur stdDeviation="0.5"/>
<feComposite in2="hardAlpha" operator="out"/>
<feColorMatrix type="matrix" values="0 0 0 0 0 0 0 0 0 0 0 0 0 0 0 0 0 0 0.05 0"/>
<feBlend mode="normal" in2="BackgroundImageFix" result="effect1_dropShadow_56_7194"/>
<feBlend mode="normal" in="SourceGraphic" in2="effect1_dropShadow_56_7194" result="shape"/>
</filter>
</defs>
</svg>
